<?xml version="1.0" standalone="no"?>
<!DOCTYPE svg PUBLIC "-//W3C//DTD SVG 20010904//EN"
 "http://www.w3.org/TR/2001/REC-SVG-20010904/DTD/svg10.dtd">
<svg version="1.0" xmlns="http://www.w3.org/2000/svg"
 width="512.000000pt" height="512.000000pt" viewBox="0 0 512.000000 512.000000"
 preserveAspectRatio="xMidYMid meet">

<g transform="translate(0.000000,512.000000) scale(0.100000,-0.100000)"
fill="#000000" stroke="none">
<path d="M3910 4970 l0 -150 347 0 348 0 -425 -426 c-234 -234 -559 -556 -723
-716 l-298 -292 -599 599 -599 599 -823 -819 c-453 -450 -884 -878 -958 -952
l-135 -133 108 -107 107 -108 668 665 c367 366 749 746 850 845 l182 180 599
-599 600 -600 828 824 828 823 3 -341 2 -342 150 0 150 0 0 600 0 600 -605 0
-605 0 0 -150z"/>
<path d="M3910 1810 l0 -1510 -150 0 -150 0 0 910 0 910 -450 0 -450 0 0 -910
0 -910 -150 0 -150 0 0 1210 0 1210 -450 0 -450 0 0 -1210 0 -1210 -150 0
-150 0 0 760 0 760 -455 0 -455 0 0 -760 0 -760 -150 0 -150 0 0 -150 0 -150
2560 0 2560 0 0 150 0 150 -150 0 -150 0 0 1510 0 1510 -455 0 -455 0 0 -1510z"/>
</g>
</svg>
